<svg xmlns="http://www.w3.org/2000/svg" xmlns:xlink="http://www.w3.org/1999/xlink" id="visual" width="900" height="600" version="1.1" viewBox="0 0 900 600"><path fill="#00cc8e" d="M0 115L82 127L164 199L245 97L327 169L409 199L491 109L573 73L655 247L736 115L818 229L900 127L900 0L818 0L736 0L655 0L573 0L491 0L409 0L327 0L245 0L164 0L82 0L0 0Z"/><path fill="#00b98a" d="M0 181L82 193L164 307L245 163L327 223L409 277L491 181L573 205L655 343L736 205L818 301L900 235L900 125L818 227L736 113L655 245L573 71L491 107L409 197L327 167L245 95L164 197L82 125L0 113Z"/><path fill="#00a784" d="M0 235L82 235L164 355L245 247L327 313L409 319L491 277L573 253L655 379L736 307L818 379L900 301L900 233L818 299L736 203L655 341L573 203L491 179L409 275L327 221L245 161L164 305L82 191L0 179Z"/><path fill="#00957c" d="M0 367L82 331L164 511L245 367L327 421L409 493L491 433L573 391L655 487L736 421L818 493L900 427L900 299L818 377L736 305L655 377L573 251L491 275L409 317L327 311L245 245L164 353L82 233L0 233Z"/><path fill="#038373" d="M0 601L82 601L164 601L245 601L327 601L409 601L491 601L573 601L655 601L736 601L818 601L900 601L900 425L818 491L736 419L655 485L573 389L491 431L409 491L327 419L245 365L164 509L82 329L0 365Z"/></svg>